<svg xmlns="http://www.w3.org/2000/svg" xmlns:xlink="http://www.w3.org/1999/xlink" width="31" height="16" viewBox="0 0 31 16">
    <defs>
        <path id="prefix__a" d="M0 0.075L27.535 0.075 27.535 11.572 0 11.572z"/>
    </defs>
    <g fill="none" fill-rule="evenodd">
        <path fill="#101010" fill-rule="nonzero" d="M30.452 3.135h-1.355c-.148 0-.267-.119-.267-.265V1.518c0-.146.12-.264.268-.264h1.355c.147 0 .267.119.267.264v1.353c0 .146-.12.264-.268.264M28.65 1.254h-.902c-.099 0-.179-.08-.179-.176V.176c0-.097.08-.176.179-.176h.903c.099 0 .179.08.179.176v.902c0 .097-.08.176-.18.176"/>
        <g transform="translate(0 3.762)">
            <mask id="prefix__b" fill="#fff">
                <use xlink:href="#prefix__a"/>
            </mask>
            <path fill="#101010" fill-rule="nonzero" d="M27.535.965V5.62c0 .75-.17 1.384-.496 1.895-.63.99-1.852 1.518-3.59 1.518h-.012c-1.737 0-2.959-.527-3.59-1.518-.326-.511-.495-1.145-.495-1.894V.965c0-.752.307-.888 1.134-.888h.26c.826 0 1.133.136 1.133.888v2.157l.002.04V5.62c0 .3.058.54.178.726.225.346.67.504 1.384.505.714-.001 1.16-.159 1.385-.506.12-.186.178-.425.178-.725V3.16v-.425l.001-.01V.964c0-.752.308-.888 1.134-.888h.26c.826 0 1.134.136 1.134.888zm-9.03 1.794L16.967 8.9c-.45 1.8-1.22 2.573-2.656 2.667-.037.003-.072.005-.105.005-.31 0-.407-.171-.464-.446l-.027-.12c-.026-.125-.043-.266.03-.364.071-.095.198-.122.393-.139.962-.098 1.288-.543 1.609-1.55-.152.05-.334.078-.532.078-1.057 0-1.34-.736-1.578-1.624L12.37 2.762c-.043-.157-.07-.318.012-.425.082-.107.242-.122.404-.122h.106c.4 0 .553.117.657.503l1.255 4.604c.162.575.325.672.733.672.332 0 .527-.104.665-.67l1.109-4.604c.088-.382.244-.505.643-.505h.12c.16 0 .32.014.404.12.085.106.063.267.026.424zM10.75 5.873H9.273c-1.188 0-1.65.302-1.65 1.076 0 .706.46 1.05 1.41 1.05 1.437 0 1.718-.439 1.718-1.197v-.93zM9.033 2.019c1.944 0 2.89.713 2.89 2.18v2.643c0 1.517-.888 2.194-2.877 2.194-1.674 0-2.596-.741-2.596-2.087 0-1.387.893-2.034 2.81-2.034h1.49V4.2c0-.803-.481-1.13-1.664-1.13-.658 0-1.26.097-1.448.144-.08.02-.147.03-.205.03-.118 0-.205-.042-.26-.126-.046-.071-.068-.173-.068-.32v-.107c0-.374.138-.465.467-.536.187-.038.677-.136 1.46-.136zm-3.758.89c0 1.105-.282 1.704-1.771 1.704H1.212V1.76c0-.395.147-.542.542-.542h1.75c1.122 0 1.771.277 1.771 1.69zM3.504.075H1.527C.471.075 0 .545 0 1.601v6.78c0 .408.131.54.539.54h.134c.408 0 .539-.132.539-.54V5.744h2.292c2.035 0 2.983-.9 2.983-2.835C6.487.976 5.54.075 3.504.075z" mask="url(#prefix__b)" opacity=".963"/>
        </g>
        <path fill="#101010" fill-rule="nonzero" d="M28.472 5.8l-1.806-.001c-.197 0-.357-.158-.357-.352V3.643c0-.194.16-.352.357-.352l1.807.001c.197 0 .357.158.357.352l-.001 1.804c0 .194-.16.351-.357.351" opacity=".921"/>
    </g>
</svg>
